<svg xmlns="http://www.w3.org/2000/svg" width="100%" height="100%" preserveAspectRatio="xMidYMid meet"
     viewBox="0 0 299.99993896484375 61.07935333251953" overflow="visible">
    <defs id="SvgjsDefs1037">
        <linearGradient id="SvgjsLinearGradientfUdblaqZ_" gradientUnits="userSpaceOnUse" x1="-2.8421709430404e-14"
                        y1="267.6000061035157" x2="267.6000061035156" y2="-2.8421709430404e-14">
            <stop id="SvgjsStop1040" stop-color="#dc7bf4" offset="0.05"></stop>
            <stop id="SvgjsStop1041" stop-color="#b512dd" offset="0.95"></stop>
        </linearGradient>
    </defs>
    <g id="SvgjsG1038" transform="scale(0.5559138111227235)" opacity="1">
        <g id="SvgjsG1042" class="BkJWoPLrd" transform="translate(0, 0) scale(0.4105829502765342)" light-content="false"
           non-strokable="false" fill="#ffffff">
            <path d="M219.6 48.1c-22.9-22.9-53.4-35.5-85.8-35.5S71 25.2 48.1 48.1s-35.5 53.4-35.5 85.8 12.6 62.9 35.5 85.8 53.4 35.5 85.8 35.5 62.9-12.6 85.8-35.5 35.5-53.4 35.5-85.8-12.7-62.9-35.6-85.8z"></path>
            <path d="M133.8 0C59.9 0 0 59.9 0 133.8s59.9 133.8 133.8 133.8 133.8-59.9 133.8-133.8S207.8 0 133.8 0zm0 260.1c-69.7 0-126.3-56.5-126.3-126.3S64.1 7.6 133.8 7.6s126.3 56.5 126.3 126.3-56.5 126.2-126.3 126.2z"></path>
        </g>
        <g id="SvgjsG1043" class="hWcbAqOvpg"
           transform="translate(21.7782, 21.778200000000005) scale(0.6631560000000001)" light-content="true"
           non-strokable="false" fill="#b512dd">
            <path d="M21.667 73.809V33.867l28.33-16.188 28.337 16.188V66.13L49.997 82.321 35 73.75V41.604l14.997-8.57L65 41.604v16.788l-15.003 8.571-1.663-.95v-16.67l8.382-4.792-6.719-3.838-8.33 4.763V69.88l8.33 4.762 21.67-12.383V37.737l-21.67-12.379-21.663 12.379v39.88L49.997 90 85 70V30L49.997 10 15 30v40z"></path>
        </g>
        <g id="SvgjsG1044" class="text" transform="translate(344.5320036621094, 77.10600137329102) scale(1)"
           light-content="false" fill="#ffffff">
            <path d="M-187.65 -1.29C-185.11 0.05 -182.18 0.72 -178.86 0.72C-175.5 0.72 -172.55 0.05 -170.01 -1.29C-167.47 -2.63 -165.5 -4.51 -164.1 -6.93C-162.7 -9.35 -162 -12.16 -162 -15.36L-162 -26.64C-162 -29.76 -162.7 -32.52 -164.1 -34.92C-165.5 -37.32 -167.47 -39.18 -170.01 -40.5C-172.55 -41.82 -175.5 -42.48 -178.86 -42.48C-182.18 -42.48 -185.11 -41.82 -187.65 -40.5C-190.19 -39.18 -192.16 -37.32 -193.56 -34.92C-194.96 -32.52 -195.66 -29.76 -195.66 -26.64L-195.66 -15.36C-195.66 -12.16 -194.96 -9.35 -193.56 -6.93C-192.16 -4.51 -190.19 -2.63 -187.65 -1.29ZM-174.81 -10.59C-175.83 -9.49 -177.18 -8.94 -178.86 -8.94C-180.5 -8.94 -181.83 -9.49 -182.85 -10.59C-183.87 -11.69 -184.38 -13.16 -184.38 -15L-184.38 -26.76C-184.38 -28.6 -183.87 -30.07 -182.85 -31.17C-181.83 -32.27 -180.5 -32.82 -178.86 -32.82C-177.18 -32.82 -175.83 -32.27 -174.81 -31.17C-173.79 -30.07 -173.28 -28.6 -173.28 -26.76L-173.28 -15C-173.28 -13.16 -173.79 -11.69 -174.81 -10.59Z M-101.94 -28.74C-103.7 -30.7 -106.16 -31.68 -109.32 -31.68C-113.24 -31.68 -115.98 -29.96 -117.54 -26.52C-117.62 -26.32 -117.72 -26.21 -117.84 -26.19C-117.96 -26.17 -118.06 -26.26 -118.14 -26.46C-118.94 -28.14 -120.1 -29.43 -121.62 -30.33C-123.14 -31.23 -124.9 -31.68 -126.9 -31.68C-130.38 -31.68 -132.88 -30.32 -134.4 -27.6C-134.52 -27.4 -134.64 -27.31 -134.76 -27.33C-134.88 -27.35 -134.94 -27.48 -134.94 -27.72L-134.94 -30.06C-134.94 -30.82 -135.32 -31.2 -136.08 -31.2L-145.08 -31.2C-145.84 -31.2 -146.22 -30.82 -146.22 -30.06L-146.22 -1.14C-146.22 -0.38 -145.84 0 -145.08 0L-136.08 0C-135.32 0 -134.94 -0.38 -134.94 -1.14L-134.94 -18.54C-134.94 -18.78 -134.92 -18.98 -134.88 -19.14C-134.68 -20.02 -134.29 -20.72 -133.71 -21.24C-133.13 -21.76 -132.42 -22.02 -131.58 -22.02C-130.58 -22.02 -129.77 -21.65 -129.15 -20.91C-128.53 -20.17 -128.22 -19.2 -128.22 -18L-128.22 -1.14C-128.22 -0.38 -127.84 0 -127.08 0L-118.08 0C-117.32 0 -116.94 -0.38 -116.94 -1.14L-116.94 -18C-116.94 -19.2 -116.64 -20.17 -116.04 -20.91C-115.44 -21.65 -114.66 -22.02 -113.7 -22.02C-112.78 -22.02 -112.03 -21.65 -111.45 -20.91C-110.87 -20.17 -110.58 -19.2 -110.58 -18L-110.58 -1.14C-110.58 -0.38 -110.2 0 -109.44 0L-100.44 0C-99.68 0 -99.3 -0.38 -99.3 -1.14L-99.3 -20.46C-99.3 -24.02 -100.18 -26.78 -101.94 -28.74Z M-59.4 -30.36C-61 -31.24 -62.8 -31.68 -64.8 -31.68C-67.92 -31.68 -70.24 -30.54 -71.76 -28.26C-71.88 -28.1 -71.99 -28.05 -72.09 -28.11C-72.19 -28.17 -72.24 -28.3 -72.24 -28.5L-72.24 -30.06C-72.24 -30.82 -72.62 -31.2 -73.38 -31.2L-82.38 -31.2C-83.14 -31.2 -83.52 -30.82 -83.52 -30.06L-83.52 -1.14C-83.52 -0.38 -83.14 0 -82.38 0L-73.38 0C-72.62 0 -72.24 -0.38 -72.24 -1.14L-72.24 -18C-72.24 -19.2 -71.93 -20.17 -71.31 -20.91C-70.69 -21.65 -69.86 -22.02 -68.82 -22.02C-67.82 -22.02 -67.01 -21.65 -66.39 -20.91C-65.77 -20.17 -65.46 -19.2 -65.46 -18L-65.46 -1.14C-65.46 -0.38 -65.08 0 -64.32 0L-55.32 0C-54.56 0 -54.18 -0.38 -54.18 -1.14L-54.18 -20.46C-54.18 -22.78 -54.65 -24.79 -55.59 -26.49C-56.53 -28.19 -57.8 -29.48 -59.4 -30.36Z M-36.96 -34.2C-35.76 -33.04 -34.2 -32.46 -32.28 -32.46C-30.32 -32.46 -28.75 -33.04 -27.57 -34.2C-26.39 -35.36 -25.8 -36.88 -25.8 -38.76C-25.8 -40.64 -26.39 -42.16 -27.57 -43.32C-28.75 -44.48 -30.32 -45.06 -32.28 -45.06C-34.2 -45.06 -35.76 -44.48 -36.96 -43.32C-38.16 -42.16 -38.76 -40.64 -38.76 -38.76C-38.76 -36.88 -38.16 -35.36 -36.96 -34.2ZM-37.92 -1.14C-37.92 -0.38 -37.54 0 -36.78 0L-27.78 0C-27.02 0 -26.64 -0.38 -26.64 -1.14L-26.64 -30.06C-26.64 -30.82 -27.02 -31.2 -27.78 -31.2L-36.78 -31.2C-37.54 -31.2 -37.92 -30.82 -37.92 -30.06Z M-2.49 -1.5C0.01 -0.18 2.9 0.48 6.18 0.48C9.42 0.48 12.29 -0.16 14.79 -1.44C17.29 -2.72 19.23 -4.52 20.61 -6.84C21.99 -9.16 22.68 -11.8 22.68 -14.76L22.68 -22.74C22.68 -23.5 22.3 -23.88 21.54 -23.88L6.36 -23.88C5.6 -23.88 5.22 -23.5 5.22 -22.74L5.22 -16.02C5.22 -15.26 5.6 -14.88 6.36 -14.88L11.22 -14.88C11.54 -14.88 11.7 -14.72 11.7 -14.4L11.7 -13.8C11.7 -12.36 11.23 -11.23 10.29 -10.41C9.35 -9.59 8.14 -9.18 6.66 -9.18C5.02 -9.18 3.65 -9.72 2.55 -10.8C1.45 -11.88 0.9 -13.28 0.9 -15L0.9 -27C0.9 -28.76 1.38 -30.17 2.34 -31.23C3.3 -32.29 4.58 -32.82 6.18 -32.82C7.82 -32.82 9.11 -32.34 10.05 -31.38C10.99 -30.42 11.46 -29.28 11.46 -27.96L11.46 -27.72C11.46 -27.52 11.84 -27.42 12.6 -27.42L21.54 -27.42C22.3 -27.42 22.68 -27.74 22.68 -28.38C22.68 -30.94 21.99 -33.3 20.61 -35.46C19.23 -37.62 17.28 -39.33 14.76 -40.59C12.24 -41.85 9.38 -42.48 6.18 -42.48C2.9 -42.48 0.01 -41.82 -2.49 -40.5C-4.99 -39.18 -6.93 -37.33 -8.31 -34.95C-9.69 -32.57 -10.38 -29.82 -10.38 -26.7L-10.38 -15.36C-10.38 -12.24 -9.69 -9.48 -8.31 -7.08C-6.93 -4.68 -4.99 -2.82 -2.49 -1.5Z M57.96 -9.51C56.92 -9.21 55.8 -9.06 54.6 -9.06C51.92 -9.06 50.2 -9.86 49.44 -11.46L49.14 -12.24C49.1 -12.6 49.24 -12.78 49.56 -12.78L67.38 -12.78C68.14 -12.78 68.52 -13.16 68.52 -13.92C68.48 -14.88 68.36 -15.84 68.16 -16.8C67.36 -21.4 65.68 -25.03 63.12 -27.69C60.56 -30.35 57.22 -31.68 53.1 -31.68C49.54 -31.68 46.41 -30.69 43.71 -28.71C41.01 -26.73 39.2 -24.12 38.28 -20.88C37.84 -19.24 37.62 -17.56 37.62 -15.84C37.62 -11.84 38.62 -8.44 40.62 -5.64C42.06 -3.68 43.93 -2.17 46.23 -1.11C48.53 -0.05 51.18 0.48 54.18 0.48C56.54 0.48 58.75 0.16 60.81 -0.48C62.87 -1.12 64.62 -2.1 66.06 -3.42C66.34 -3.7 66.48 -3.98 66.48 -4.26C66.48 -4.42 66.38 -4.66 66.18 -4.98L62.1 -10.62C61.86 -10.94 61.6 -11.1 61.32 -11.1C61.12 -11.1 60.86 -10.98 60.54 -10.74C59.86 -10.22 59 -9.81 57.96 -9.51ZM49.44 -19.62C50.08 -21.22 51.22 -22.02 52.86 -22.02C54.54 -22.02 55.72 -21.22 56.4 -19.62L56.55 -19.32C56.61 -19.2 56.64 -19.08 56.64 -18.96C56.64 -18.72 56.48 -18.6 56.16 -18.6L49.68 -18.6C49.36 -18.6 49.2 -18.72 49.2 -18.96L49.26 -19.14Z M107.64 -30.36C106.04 -31.24 104.24 -31.68 102.24 -31.68C99.12 -31.68 96.8 -30.54 95.28 -28.26C95.16 -28.1 95.05 -28.05 94.95 -28.11C94.85 -28.17 94.8 -28.3 94.8 -28.5L94.8 -30.06C94.8 -30.82 94.42 -31.2 93.66 -31.2L84.66 -31.2C83.9 -31.2 83.52 -30.82 83.52 -30.06L83.52 -1.14C83.52 -0.38 83.9 0 84.66 0L93.66 0C94.42 0 94.8 -0.38 94.8 -1.14L94.8 -18C94.8 -19.2 95.11 -20.17 95.73 -20.91C96.35 -21.65 97.18 -22.02 98.22 -22.02C99.22 -22.02 100.03 -21.65 100.65 -20.91C101.27 -20.17 101.58 -19.2 101.58 -18L101.58 -1.14C101.58 -0.38 101.96 0 102.72 0L111.72 0C112.48 0 112.86 -0.38 112.86 -1.14L112.86 -20.46C112.86 -22.78 112.39 -24.79 111.45 -26.49C110.51 -28.19 109.24 -29.48 107.64 -30.36Z M156.06 -0.96C156.22 -0.32 156.64 0 157.32 0L167.04 0C167.72 0 168.06 -0.3 168.06 -0.9C168.06 -1.06 168.04 -1.2 168 -1.32L155.52 -41.04C155.32 -41.68 154.9 -42 154.26 -42L141.9 -42C141.26 -42 140.84 -41.68 140.64 -41.04L128.16 -1.32C128.04 -0.92 128.07 -0.6 128.25 -0.36C128.43 -0.12 128.72 0 129.12 0L138.84 0C139.52 0 139.94 -0.32 140.1 -0.96L141.3 -5.28C141.38 -5.56 141.56 -5.7 141.84 -5.7L154.32 -5.7C154.6 -5.7 154.78 -5.56 154.86 -5.28ZM143.94 -14.76L143.94 -14.88L147.78 -28.74C147.86 -28.94 147.97 -29.04 148.11 -29.04C148.25 -29.04 148.34 -28.94 148.38 -28.74L152.22 -14.88C152.26 -14.72 152.24 -14.59 152.16 -14.49C152.08 -14.39 151.96 -14.34 151.8 -14.34L144.36 -14.34C144.08 -14.34 143.94 -14.48 143.94 -14.76Z M183.84 -1.14C183.84 -0.38 184.22 0 184.98 0L193.98 0C194.74 0 195.12 -0.38 195.12 -1.14L195.12 -40.86C195.12 -41.62 194.74 -42 193.98 -42L184.98 -42C184.22 -42 183.84 -41.62 183.84 -40.86Z"></path>
        </g>
    </g>
</svg>